REM DIRINDEX 1\2,1\3,1\4
REM DIRNAME cjc151,folder01,folder02,folder03
TITLE ""
FILE "029 029_TOEFL_3900.mp3" MP3
  TRACK 01 AUDIO
    TITLE "2:cjc151_1240"
    INDEX 01 00:00:00
  TRACK 02 AUDIO
    TITLE "0:"
    INDEX 01 00:01:21
  TRACK 03 AUDIO
    TITLE "3:cjc151_1241"
    INDEX 01 00:03:00
  TRACK 04 AUDIO
    TITLE "0:"
    INDEX 01 00:06:59
  TRACK 05 AUDIO
    TITLE "2:cjc151_1242"
    INDEX 01 00:08:36
  TRACK 06 AUDIO
    TITLE "0:"
    INDEX 01 00:09:44
  TRACK 07 AUDIO
    TITLE "3:cjc151_1243"
    INDEX 01 00:11:17
  TRACK 08 AUDIO
    TITLE "0:"
    INDEX 01 00:15:11
  TRACK 09 AUDIO
    TITLE "2:cjc151_1244"
    INDEX 01 00:16:65
  TRACK 10 AUDIO
    TITLE "0:"
    INDEX 01 00:17:70
  TRACK 11 AUDIO
    TITLE "3:cjc151_1245"
    INDEX 01 00:19:50
  TRACK 12 AUDIO
    TITLE "0:"
    INDEX 01 00:23:10
  TRACK 13 AUDIO
    TITLE "2:cjc151_1246"
    INDEX 01 00:24:67
  TRACK 14 AUDIO
    TITLE "0:"
    INDEX 01 00:26:09
  TRACK 15 AUDIO
    TITLE "3:cjc151_1247"
    INDEX 01 00:27:61
  TRACK 16 AUDIO
    TITLE "0:"
    INDEX 01 00:31:26
  TRACK 17 AUDIO
    TITLE "2:cjc151_1248"
    INDEX 01 00:33:05
  TRACK 18 AUDIO
    TITLE "0:"
    INDEX 01 00:34:32
  TRACK 19 AUDIO
    TITLE "3:cjc151_1249"
    INDEX 01 00:36:09
  TRACK 20 AUDIO
    TITLE "0:"
    INDEX 01 00:40:32
  TRACK 21 AUDIO
    TITLE "2:cjc151_1250"
    INDEX 01 00:42:10
  TRACK 22 AUDIO
    TITLE "0:"
    INDEX 01 00:43:25
  TRACK 23 AUDIO
    TITLE "3:cjc151_1251"
    INDEX 01 00:45:04
  TRACK 24 AUDIO
    TITLE "0:"
    INDEX 01 00:49:41
  TRACK 25 AUDIO
    TITLE "2:cjc151_1252"
    INDEX 01 00:51:20
  TRACK 26 AUDIO
    TITLE "0:"
    INDEX 01 00:54:17
  TRACK 27 AUDIO
    TITLE "3:cjc151_1253"
    INDEX 01 00:55:69
  TRACK 28 AUDIO
    TITLE "0:"
    INDEX 01 01:00:06
  TRACK 29 AUDIO
    TITLE "2:cjc151_1254"
    INDEX 01 01:01:60
  TRACK 30 AUDIO
    TITLE "0:"
    INDEX 01 01:03:00
  TRACK 31 AUDIO
    TITLE "3:cjc151_1255"
    INDEX 01 01:04:54
  TRACK 32 AUDIO
    TITLE "0:"
    INDEX 01 01:08:09
  TRACK 33 AUDIO
    TITLE "2:cjc151_1256"
    INDEX 01 01:09:67
  TRACK 34 AUDIO
    TITLE "0:"
    INDEX 01 01:10:71
  TRACK 35 AUDIO
    TITLE "3:cjc151_1257"
    INDEX 01 01:12:50
  TRACK 36 AUDIO
    TITLE "0:"
    INDEX 01 01:15:64
  TRACK 37 AUDIO
    TITLE "2:cjc151_1258"
    INDEX 01 01:17:45
  TRACK 38 AUDIO
    TITLE "0:"
    INDEX 01 01:18:41
  TRACK 39 AUDIO
    TITLE "3:cjc151_1259"
    INDEX 01 01:20:20
  TRACK 40 AUDIO
    TITLE "0:"
    INDEX 01 01:24:22
  TRACK 41 AUDIO
    TITLE "2:cjc151_1260"
    INDEX 01 01:26:01
  TRACK 42 AUDIO
    TITLE "0:"
    INDEX 01 01:26:70
  TRACK 43 AUDIO
    TITLE "3:cjc151_1261"
    INDEX 01 01:28:49
  TRACK 44 AUDIO
    TITLE "0:"
    INDEX 01 01:32:47
  TRACK 45 AUDIO
    TITLE "2:cjc151_1262"
    INDEX 01 01:34:28
  TRACK 46 AUDIO
    TITLE "0:"
    INDEX 01 01:35:35
  TRACK 47 AUDIO
    TITLE "3:cjc151_1263"
    INDEX 01 01:37:13
  TRACK 48 AUDIO
    TITLE "0:"
    INDEX 01 01:41:28
  TRACK 49 AUDIO
    TITLE "2:cjc151_1264"
    INDEX 01 01:43:07
  TRACK 50 AUDIO
    TITLE "0:"
    INDEX 01 01:44:15
  TRACK 51 AUDIO
    TITLE "3:cjc151_1265"
    INDEX 01 01:45:67
  TRACK 52 AUDIO
    TITLE "0:"
    INDEX 01 01:49:63
  TRACK 53 AUDIO
    TITLE "2:cjc151_1266"
    INDEX 01 01:51:44
  TRACK 54 AUDIO
    TITLE "0:"
    INDEX 01 01:52:65
  TRACK 55 AUDIO
    TITLE "3:cjc151_1267"
    INDEX 01 01:54:44
  TRACK 56 AUDIO
    TITLE "0:"
    INDEX 01 01:58:68
  TRACK 57 AUDIO
    TITLE "2:cjc151_1268"
    INDEX 01 02:00:49
  TRACK 58 AUDIO
    TITLE "0:"
    INDEX 01 02:01:56
  TRACK 59 AUDIO
    TITLE "3:cjc151_1269"
    INDEX 01 02:03:38
  TRACK 60 AUDIO
    TITLE "0:"
    INDEX 01 02:08:47
  TRACK 61 AUDIO
    TITLE "2:cjc151_1270"
    INDEX 01 02:10:28
  TRACK 62 AUDIO
    TITLE "0:"
    INDEX 01 02:11:35
  TRACK 63 AUDIO
    TITLE "3:cjc151_1271"
    INDEX 01 02:13:14
  TRACK 64 AUDIO
    TITLE "0:"
    INDEX 01 02:17:30
  TRACK 65 AUDIO
    TITLE "2:cjc151_1272"
    INDEX 01 02:19:09
  TRACK 66 AUDIO
    TITLE "0:"
    INDEX 01 02:20:71
  TRACK 67 AUDIO
    TITLE "3:cjc151_1273"
    INDEX 01 02:22:53
  TRACK 68 AUDIO
    TITLE "0:"
    INDEX 01 02:27:24
  TRACK 69 AUDIO
    TITLE "2:cjc151_1274"
    INDEX 01 02:29:08
  TRACK 70 AUDIO
    TITLE "0:"
    INDEX 01 02:30:27
  TRACK 71 AUDIO
    TITLE "3:cjc151_1275"
    INDEX 01 02:32:02
  TRACK 72 AUDIO
    TITLE "0:"
    INDEX 01 02:36:15
  TRACK 73 AUDIO
    TITLE "2:cjc151_1276"
    INDEX 01 02:37:70
  TRACK 74 AUDIO
    TITLE "0:"
    INDEX 01 02:38:65
  TRACK 75 AUDIO
    TITLE "3:cjc151_1277"
    INDEX 01 02:40:45
  TRACK 76 AUDIO
    TITLE "0:"
    INDEX 01 02:44:58
  TRACK 77 AUDIO
    TITLE "2:cjc151_1278"
    INDEX 01 02:46:41
  TRACK 78 AUDIO
    TITLE "0:"
    INDEX 01 02:47:51
  TRACK 79 AUDIO
    TITLE "3:cjc151_1279"
    INDEX 01 02:49:28
  TRACK 80 AUDIO
    TITLE "0:"
    INDEX 01 02:54:02
  TRACK 81 AUDIO
    TITLE "2:cjc151_1280"
    INDEX 01 02:55:52
  TRACK 82 AUDIO
    TITLE "0:"
    INDEX 01 02:56:71
  TRACK 83 AUDIO
    TITLE "3:cjc151_1281"
    INDEX 01 02:58:52
  TRACK 84 AUDIO
    TITLE "0:"
    INDEX 01 03:03:38
  TRACK 85 AUDIO
    TITLE "2:cjc151_1282"
    INDEX 01 03:05:17
  TRACK 86 AUDIO
    TITLE "0:"
    INDEX 01 03:06:24
  TRACK 87 AUDIO
    TITLE "3:cjc151_1283"
    INDEX 01 03:08:08
  TRACK 88 AUDIO
    TITLE "0:"
    INDEX 01 03:11:55
